<!--?xml version="1.0" standalone="no"?-->
              <svg id="sw-js-blob-svg" viewBox="0 0 100 100" xmlns="http://www.w3.org/2000/svg" version="1.1">
                    <defs> 
                        <linearGradient id="sw-gradient" x1="0" x2="1" y1="1" y2="0">
                            <stop id="stop1" stop-color="rgba(255, 81.917, 0, 1)" offset="0%"></stop>
                            <stop id="stop2" stop-color="rgba(253.221, 193.183, 94.083, 1)" offset="100%"></stop>
                        </linearGradient>
                    </defs>
                <path fill="url(#sw-gradient)" d="M29.4,-34.2C37.4,-28.2,42.9,-18.4,44.6,-8C46.2,2.4,44,13.3,37.9,20.1C31.9,27,21.9,29.8,12.7,31.9C3.5,33.9,-4.9,35.2,-13.4,33.5C-22,31.9,-30.6,27.3,-34.4,20.2C-38.1,13,-36.9,3.4,-33.6,-4.3C-30.3,-11.9,-24.9,-17.6,-19,-24C-13,-30.4,-6.5,-37.4,2.1,-39.9C10.7,-42.4,21.3,-40.2,29.4,-34.2Z" width="100%" height="100%" transform="translate(50 50)" stroke-width="0" style="transition: 0.3s;" stroke="url(#sw-gradient)"></path>
              </svg>